<svg xmlns="http://www.w3.org/2000/svg" width="33" height="31.448" viewBox="0 0 33 31.448">
  <path id="icon" d="M4423,223.449h-18.222a.621.621,0,0,1,0-1.243h4.591V219a16.532,16.532,0,0,1-9.373-14.88.622.622,0,0,1,.622-.622h23.344l7.092-7.246a.622.622,0,0,1,.888.87l-6.242,6.376h6.674a.621.621,0,0,1,.621.622,16.525,16.525,0,0,1-9.375,14.88v3.206h4.591a.621.621,0,1,1,0,1.243Zm-12.387-1.243h11.765v-2.672c-.1.038-.2.076-.305.112l-.038.013c-.111.04-.223.078-.335.115l-.04.013c-.116.039-.231.075-.348.11l-.018.006a16.376,16.376,0,0,1-2.907.6h-.014l-.239.026h0l-.092.008-.064.007-.218.018-.074.006-.087.006-.22.012-.086.006-.064,0c-.082,0-.165.007-.248.009l-.083,0h-.036c-.121,0-.242,0-.364,0s-.242,0-.364,0h-.037l-.083,0c-.082,0-.166,0-.247-.009l-.067,0-.084,0-.219-.013-.089-.006-.075-.006-.216-.018-.068-.006-.091-.009-.237-.026h-.018a16.4,16.4,0,0,1-2.908-.6l-.01,0c-.12-.037-.239-.075-.358-.113l-.032-.01c-.116-.039-.232-.079-.349-.12l-.022-.009c-.1-.037-.207-.075-.309-.113Zm-5.7-8.177.068.078.116.132c.046.051.091.1.138.152h0a15.336,15.336,0,0,0,10.274,4.94l.133.009.166.008.054,0,.164.007.116,0,.236,0h.235c.08,0,.161,0,.241,0l.116,0,.156-.006.063,0,.166-.008.133-.009a15.341,15.341,0,0,0,10.637-5.35l.087-.1c.033-.039.065-.079.1-.118a15.248,15.248,0,0,0,2.612-4.666h-28.846A15.264,15.264,0,0,0,4404.915,214.029Zm-3.208-6.177h29.587a15.089,15.089,0,0,0,.451-3.112h-30.489A15.19,15.19,0,0,0,4401.707,207.852Zm3.044,3.069a.622.622,0,0,1,1.2-.34,6.053,6.053,0,0,0,5.8,4.373.621.621,0,1,1,0,1.243A7.3,7.3,0,0,1,4404.75,210.921Zm7.435-8.569v-6.735a.621.621,0,0,1,1.243,0v6.735a.621.621,0,1,1-1.243,0Zm7.385-.535v-6.735a.621.621,0,0,1,1.243,0v6.735a.621.621,0,1,1-1.243,0Zm-3.691-2.458v-6.739a.621.621,0,0,1,1.243,0v6.739a.621.621,0,0,1-1.243,0Z" transform="translate(-4400 -192)" fill="#e80000"/>
</svg>
