<svg xmlns="http://www.w3.org/2000/svg" width="33" height="27.507" viewBox="0 0 33 27.507">
  <path id="icon" d="M4801.321,5287.5h-16.009a.687.687,0,0,1-.687-.687v-16.5a.688.688,0,0,1,.688-.687h4.812v-8.936a.688.688,0,0,1,.688-.687h2.75a6.194,6.194,0,0,1,6.188,6.187v3.437h7.561a.687.687,0,0,1,.689.729c-.024.393-.6,9.679-1.644,13.577a4.7,4.7,0,0,1-1.184,2.195,5.22,5.22,0,0,1-3.542,1.384Q4801.475,5287.507,4801.321,5287.5ZM4786,5286.124h15.321a3.914,3.914,0,0,0,2.877-.967,3.32,3.32,0,0,0,.824-1.577c.844-3.153,1.395-10.28,1.553-12.58h-7.514a.687.687,0,0,1-.687-.688v-4.125a4.819,4.819,0,0,0-4.813-4.812H4791.5v8.936a.688.688,0,0,1-.687.688H4786Zm-10.312,1.374a.687.687,0,0,1-.687-.687v-16.5a.688.688,0,0,1,.688-.687h5.5a.688.688,0,0,1,.688.688v16.5a.687.687,0,0,1-.687.688Zm.688-1.375h4.125V5271h-4.125Z" transform="translate(-4775 -5260)" fill="#e80000"/>
</svg>
