<svg xmlns="http://www.w3.org/2000/svg" width="33.5" height="39.04" viewBox="0 0 33.5 39.04">
  <path id="icon" d="M4796.071,5297.619v-4.681a16.879,16.879,0,0,1-8.2.111v4.141a1.848,1.848,0,1,1-3.7,0V5291.7a16.752,16.752,0,1,1,24.321-14.946,16.675,16.675,0,0,1-8.95,14.826v6.044a1.775,1.775,0,0,1-3.479,0Zm1,0c0,.2.315.42.74.42s.739-.222.739-.42v-13.878a3.477,3.477,0,0,1-.495.07c-.081.006-.162.009-.244.009s-.152,0-.228-.008a3.389,3.389,0,0,1-.513-.071v13.878Zm-11.892-.429a.848.848,0,1,0,1.7,0v-14a.727.727,0,0,0-.045-.267.817.817,0,0,0-.2-.329.854.854,0,0,0-.6-.254.838.838,0,0,0-.792.563.758.758,0,0,0-.053.287v14Zm2.7-14v8.831a15.949,15.949,0,0,0,8.194-.118v-8.6a6.4,6.4,0,0,1-2.484-5.406c0-3.271,1.9-5.934,4.226-5.934s4.227,2.663,4.227,5.934a6.382,6.382,0,0,1-2.488,5.406v7.136A15.751,15.751,0,1,0,4776,5276.75a15.855,15.855,0,0,0,8.179,13.814v-7.374c0-.031,0-.062,0-.093a4.056,4.056,0,0,1-2.723-3.82v-5.845h1v5.845a3.05,3.05,0,0,0,2.04,2.872,1.842,1.842,0,0,1,1.028-.739v-7.735h1v7.738a1.886,1.886,0,0,1,.807.475,1.846,1.846,0,0,1,.22.262,3.051,3.051,0,0,0,2.042-2.873v-5.845h1v5.845a4.055,4.055,0,0,1-2.723,3.82c0,.031,0,.062,0,.094Zm10.178-.383a2.174,2.174,0,0,0,.755-.235c1.337-.678,2.23-2.558,2.23-4.679,0-2.721-1.447-4.934-3.227-4.934s-3.226,2.213-3.226,4.934c0,2.119.894,4,2.221,4.676a2.187,2.187,0,0,0,.763.238A2.5,2.5,0,0,0,4798.053,5282.807Zm-2.93-4.508a5.653,5.653,0,0,1,.66-3.073,2.658,2.658,0,0,1,2.129-1.487l.052,1a1.7,1.7,0,0,0-1.314.985,4.654,4.654,0,0,0-.528,2.524,3.749,3.749,0,0,0,1.592,3.167l-.431.9A4.62,4.62,0,0,1,4795.123,5278.3Z" transform="translate(-4775 -5260)" fill="#e80000"/>
</svg>
