<svg xmlns="http://www.w3.org/2000/svg" width="32.999" height="24.484" viewBox="0 0 32.999 24.484">
  <path id="icon" d="M4804.806,5282.887v-9.581a1.6,1.6,0,0,1-1.6-1.6v-5.525a6.673,6.673,0,0,1,4.05-6.142.533.533,0,0,1,.74.489v22.355a1.6,1.6,0,0,1-3.193,0Zm-.532-16.692v5.514a.532.532,0,0,0,.532.532,1.065,1.065,0,0,1,1.065,1.065v9.581a.532.532,0,0,0,1.063,0V5261.4A5.609,5.609,0,0,0,4804.274,5266.2Zm-27.677,16.692v-13.375a2.128,2.128,0,0,1-1.6-2.061v-6.919a.532.532,0,0,1,1.063,0v4.791a1.066,1.066,0,0,0,1.065,1.065h.532v-5.855a.532.532,0,0,1,1.065,0v5.855h.533a1.065,1.065,0,0,0,1.064-1.065v-4.791a.532.532,0,0,1,1.065,0v6.919a2.132,2.132,0,0,1-1.6,2.061v13.375a1.6,1.6,0,0,1-3.193,0Zm-.533-15.436a1.065,1.065,0,0,0,1.065,1.065.532.532,0,0,1,.532.533v13.838a.532.532,0,0,0,1.065,0v-13.838a.533.533,0,0,1,.533-.533,1.064,1.064,0,0,0,1.064-1.065v-.287a2.129,2.129,0,0,1-1.064.287h-2.13a2.13,2.13,0,0,1-1.065-.287Zm5.324,4.791a10.645,10.645,0,1,1,10.644,10.646A10.644,10.644,0,0,1,4781.388,5272.242Zm1.063,0a9.581,9.581,0,1,0,9.581-9.581A9.581,9.581,0,0,0,4782.451,5272.242Zm2.662,0a6.92,6.92,0,1,1,6.919,6.92A6.919,6.919,0,0,1,4785.113,5272.242Zm1.065,0a5.855,5.855,0,1,0,5.854-5.854A5.854,5.854,0,0,0,4786.178,5272.242Z" transform="translate(-4775 -5260)" fill="#e80000"/>
</svg>
